<svg xmlns="http://www.w3.org/2000/svg" viewBox="0 0 17.69 12"><defs><style>.cls-1{fill:#231f20;}</style></defs><g id="Layer_2" data-name="Layer 2"><g id="Layer_1-2" data-name="Layer 1"><path d="M5,.66a2.3,2.3,0,0,1,.88,1.95,2.45,2.45,0,0,1-.86,2,3.58,3.58,0,0,1-2.3.69H1.89V8H0V0H2.58A4,4,0,0,1,5,.66Zm-1.42,3a1.36,1.36,0,0,0,.35-1Q4,1.35,2.56,1.35H1.89V4h.7A1.51,1.51,0,0,0,3.62,3.65Z"/><path d="M11.59,8l-.42-1.72H8.85L8.44,8h-2L8.89,0h2.3L13.6,8ZM9.17,4.9h1.68L10,1.37Z"/><path class="cls-1" d="M1.54,10.68a1.27,1.27,0,0,1,0,.28.66.66,0,0,1-.11.24.49.49,0,0,1-.21.16.71.71,0,0,1-.31.06.71.71,0,0,1-.31-.06.49.49,0,0,1-.21-.16A.66.66,0,0,1,.25,11a1.27,1.27,0,0,1,0-.28V9.56H.39v1.08a1.62,1.62,0,0,0,0,.21,1.18,1.18,0,0,0,.07.2.46.46,0,0,0,.15.16.5.5,0,0,0,.26.06.5.5,0,0,0,.26-.06.36.36,0,0,0,.14-.16.7.7,0,0,0,.08-.2,1.62,1.62,0,0,0,0-.21V9.56h.17Z"/><path class="cls-1" d="M2,9.56h.17v1.82H2Z"/><path class="cls-1" d="M3.23,9.46l.14,0-.78,2-.14-.05Z"/><path class="cls-1" d="M4.92,10.68a1.27,1.27,0,0,1,0,.28.66.66,0,0,1-.11.24.49.49,0,0,1-.21.16.71.71,0,0,1-.31.06A.71.71,0,0,1,4,11.36a.49.49,0,0,1-.21-.16A.66.66,0,0,1,3.63,11a1.27,1.27,0,0,1,0-.28V9.56h.17v1.08a1.62,1.62,0,0,0,0,.21,1.18,1.18,0,0,0,.07.2.46.46,0,0,0,.15.16.5.5,0,0,0,.26.06.5.5,0,0,0,.26-.06.36.36,0,0,0,.14-.16.7.7,0,0,0,.08-.2,1.62,1.62,0,0,0,0-.21V9.56h.17Z"/><path class="cls-1" d="M5.83,10.42,5.2,9.56h.2l.53.74.52-.74h.2L6,10.42l.68,1H6.5l-.58-.82-.57.82H5.14Z"/><path class="cls-1" d="M7.61,9.56h.56a1.16,1.16,0,0,1,.4.06.69.69,0,0,1,.27.14A.84.84,0,0,1,9,10a1.65,1.65,0,0,1,.09.21c0,.07,0,.13,0,.18v.23a1.16,1.16,0,0,1,0,.18A1,1,0,0,1,9,11a.68.68,0,0,1-.18.2.87.87,0,0,1-.27.15,1.16,1.16,0,0,1-.4.06H7.61Zm.17,1.66h.35a1.15,1.15,0,0,0,.33,0A.82.82,0,0,0,8.74,11a.84.84,0,0,0,.18-.23A.9.9,0,0,0,9,10.47a.86.86,0,0,0-.06-.34.89.89,0,0,0-.18-.24.8.8,0,0,0-.28-.13,1.14,1.14,0,0,0-.33,0H7.78Z"/><path class="cls-1" d="M10.54,11.15a.47.47,0,0,1-.22.2.72.72,0,0,1-.29.06.66.66,0,0,1-.25-.05.5.5,0,0,1-.19-.13A.62.62,0,0,1,9.47,11a.75.75,0,0,1-.05-.26.7.7,0,0,1,.05-.25.62.62,0,0,1,.12-.19.59.59,0,0,1,.19-.13.6.6,0,0,1,.48,0,.43.43,0,0,1,.17.12.49.49,0,0,1,.11.18.51.51,0,0,1,0,.2v.11h-1a.69.69,0,0,0,0,.13.34.34,0,0,0,.07.15.58.58,0,0,0,.14.12.45.45,0,0,0,.22,0,.49.49,0,0,0,.23-.06.41.41,0,0,0,.17-.15Zm-.12-.47a.4.4,0,0,0,0-.15.47.47,0,0,0-.09-.12A.43.43,0,0,0,10,10.3a.46.46,0,0,0-.21,0,.37.37,0,0,0-.13.12.42.42,0,0,0-.07.13l0,.08Z"/><path class="cls-1" d="M10.92,11.07a.31.31,0,0,0,.15.15.46.46,0,0,0,.2,0h.1l.08,0,.07-.07a.2.2,0,0,0,0-.09.17.17,0,0,0,0-.12l-.13-.07-.17,0a.48.48,0,0,1-.17-.05.3.3,0,0,1-.13-.09.24.24,0,0,1-.05-.18.33.33,0,0,1,0-.15.52.52,0,0,1,.1-.11.31.31,0,0,1,.13-.06l.14,0a.67.67,0,0,1,.26.05.44.44,0,0,1,.16.17l-.14.09a.28.28,0,0,0-.28-.17h-.08l-.08,0a.09.09,0,0,0-.06.06.11.11,0,0,0,0,.08.17.17,0,0,0,0,.12l.13.06.17,0a.69.69,0,0,1,.17.05.35.35,0,0,1,.13.11.24.24,0,0,1,.06.18.38.38,0,0,1,0,.16.27.27,0,0,1-.09.12l-.14.07-.16,0a.68.68,0,0,1-.29-.06.41.41,0,0,1-.19-.18Z"/><path class="cls-1" d="M12,9.72a.12.12,0,0,1,0-.08.1.1,0,0,1,.16,0,.11.11,0,1,1-.2.08Zm0,.47h.16v1.19H12Z"/><path class="cls-1" d="M13.83,11.3a.74.74,0,0,1-.07.36.49.49,0,0,1-.16.21.54.54,0,0,1-.2.1l-.2,0L13,12l-.16-.05a.47.47,0,0,1-.14-.08.36.36,0,0,1-.11-.1l.12-.12a.41.41,0,0,0,.2.17.63.63,0,0,0,.27.06.54.54,0,0,0,.19,0,.47.47,0,0,0,.14-.08l.08-.12a.28.28,0,0,0,0-.12.52.52,0,0,0,0-.11v-.25h0a.58.58,0,0,1-.18.17.6.6,0,0,1-.27.06.7.7,0,0,1-.25-.05.53.53,0,0,1-.2-.13.85.85,0,0,1-.14-.19.69.69,0,0,1-.05-.24.64.64,0,0,1,.05-.24.67.67,0,0,1,.14-.19.53.53,0,0,1,.2-.13.7.7,0,0,1,.25-.05.6.6,0,0,1,.27.06.58.58,0,0,1,.18.17h0v-.2h.16Zm-.15-.53a.41.41,0,0,0,0-.19.45.45,0,0,0-.1-.14.31.31,0,0,0-.15-.1.39.39,0,0,0-.18,0,.41.41,0,0,0-.19,0,.33.33,0,0,0-.14.1.49.49,0,0,0-.11.14.58.58,0,0,0,0,.19.52.52,0,0,0,0,.18.42.42,0,0,0,.11.15.45.45,0,0,0,.14.1.41.41,0,0,0,.19,0,.47.47,0,0,0,.43-.29A.37.37,0,0,0,13.68,10.77Z"/><path class="cls-1" d="M14.21,10.52a.28.28,0,0,0,0-.08v-.18a.2.2,0,0,1,0-.07h.16v.13s0,.07,0,.08h0a.4.4,0,0,1,.15-.17.43.43,0,0,1,.25-.07.53.53,0,0,1,.23,0,.41.41,0,0,1,.14.12.59.59,0,0,1,.07.16,1.23,1.23,0,0,1,0,.19v.71h-.16v-.7a.61.61,0,0,0,0-.14.33.33,0,0,0-.05-.12.2.2,0,0,0-.09-.09.33.33,0,0,0-.15,0,.45.45,0,0,0-.16,0,.38.38,0,0,0-.13.09.38.38,0,0,0-.09.15.66.66,0,0,0,0,.21v.6h-.15Z"/><path class="cls-1" d="M16.69,11.15a.49.49,0,0,1-.23.2.65.65,0,0,1-.29.06.7.7,0,0,1-.25-.05.59.59,0,0,1-.19-.13.62.62,0,0,1-.12-.19.75.75,0,0,1,0-.26.69.69,0,0,1,0-.25.5.5,0,0,1,.13-.19.46.46,0,0,1,.18-.13.69.69,0,0,1,.24-.05.6.6,0,0,1,.24.05.57.57,0,0,1,.18.12.67.67,0,0,1,.11.18.75.75,0,0,1,0,.2v.11h-1a.69.69,0,0,0,0,.13,1,1,0,0,0,.07.15.87.87,0,0,0,.14.12.48.48,0,0,0,.22,0,.46.46,0,0,0,.23-.06.36.36,0,0,0,.17-.15Zm-.12-.47a.4.4,0,0,0,0-.15l-.09-.12a.57.57,0,0,0-.13-.08.45.45,0,0,0-.16,0,.43.43,0,0,0-.35.17.83.83,0,0,0-.07.13l0,.08Z"/><path class="cls-1" d="M17.07,10.52a.28.28,0,0,0,0-.08v-.18a.2.2,0,0,1,0-.07h.16v.13a.54.54,0,0,0,0,.08.5.5,0,0,1,.15-.17.35.35,0,0,1,.23-.07h.09l0,.15h-.06a.29.29,0,0,0-.17,0,.36.36,0,0,0-.12.08.39.39,0,0,0-.08.14.78.78,0,0,0,0,.16v.65h-.15Z"/></g></g></svg>