<svg xmlns="http://www.w3.org/2000/svg" viewBox="0 0 55.01 37.31"><defs><style>.cls-1{fill:#231f20;}</style></defs><g id="Layer_2" data-name="Layer 2"><g id="Layer_1-2" data-name="Layer 1"><path d="M15.67,2A7.12,7.12,0,0,1,18.4,8.11a7.64,7.64,0,0,1-2.67,6.33,11.16,11.16,0,0,1-7.16,2.13H5.88v8.28H0V0H8Q13,0,15.67,2Zm-4.43,9.31a4.18,4.18,0,0,0,1.1-3.24Q12.34,4.2,8,4.2H5.88v8.14H8.07A4.56,4.56,0,0,0,11.24,11.35Z"/><path d="M36.05,24.85l-1.3-5.34H27.51l-1.26,5.34H20.16L27.65,0h7.14l7.5,24.85Zm-7.54-9.61h5.24l-2.62-11Z"/><path class="cls-1" d="M4.8,33.22a3.57,3.57,0,0,1-.1.87,2.11,2.11,0,0,1-.35.74,1.81,1.81,0,0,1-.64.51,2.21,2.21,0,0,1-1,.19,2.23,2.23,0,0,1-1-.19,1.9,1.9,0,0,1-.64-.51,2.09,2.09,0,0,1-.34-.74,3.58,3.58,0,0,1-.11-.87v-3.5H1.2v3.36a3.74,3.74,0,0,0,.06.65,1.8,1.8,0,0,0,.22.64,1.35,1.35,0,0,0,.46.49,1.46,1.46,0,0,0,.8.19,1.42,1.42,0,0,0,.79-.19A1.38,1.38,0,0,0,4,34.37a2,2,0,0,0,.22-.64,5,5,0,0,0,0-.65V29.72H4.8Z"/><path class="cls-1" d="M6.25,29.72h.53v5.67H6.25Z"/><path class="cls-1" d="M10.06,29.44l.41.14-2.42,6.1-.43-.15Z"/><path class="cls-1" d="M15.31,33.22a3.57,3.57,0,0,1-.1.87,2.11,2.11,0,0,1-.35.74,1.81,1.81,0,0,1-.64.51,2.18,2.18,0,0,1-1,.19,2.15,2.15,0,0,1-1-.19,1.73,1.73,0,0,1-.64-.51,2,2,0,0,1-.35-.74,3.58,3.58,0,0,1-.11-.87v-3.5h.53v3.36a3.74,3.74,0,0,0,.06.65,2,2,0,0,0,.22.64,1.35,1.35,0,0,0,.46.49,1.46,1.46,0,0,0,.8.19,1.42,1.42,0,0,0,.79-.19,1.38,1.38,0,0,0,.47-.49,2,2,0,0,0,.22-.64,3.7,3.7,0,0,0,0-.65V29.72h.53Z"/><path class="cls-1" d="M18.12,32.41l-1.94-2.69h.63L18.44,32l1.61-2.31h.63l-1.92,2.69,2.1,3h-.65l-1.79-2.56-1.8,2.56H16Z"/><path class="cls-1" d="M23.66,29.72h1.75a3.84,3.84,0,0,1,1.25.18,3,3,0,0,1,.85.46A2.54,2.54,0,0,1,28,31a3.09,3.09,0,0,1,.29.66,3.33,3.33,0,0,1,.12.56c0,.17,0,.29,0,.36s0,.18,0,.35a3.65,3.65,0,0,1-.12.57,3.26,3.26,0,0,1-.29.65,2.54,2.54,0,0,1-.53.62,2.75,2.75,0,0,1-.85.46,3.84,3.84,0,0,1-1.25.18H23.66Zm.52,5.19h1.09a3.92,3.92,0,0,0,1.05-.14,2.52,2.52,0,0,0,.85-.43,2.06,2.06,0,0,0,.57-.73,2.88,2.88,0,0,0,0-2.11,2.06,2.06,0,0,0-.57-.73,2.52,2.52,0,0,0-.85-.43,3.92,3.92,0,0,0-1.05-.14H24.18Z"/><path class="cls-1" d="M32.78,34.69a1.5,1.5,0,0,1-.69.61,2.24,2.24,0,0,1-.91.18,1.87,1.87,0,0,1-.76-.14,1.91,1.91,0,0,1-.6-.4,2,2,0,0,1-.38-.62,2.47,2.47,0,0,1-.13-.79,2.15,2.15,0,0,1,.14-.77,2,2,0,0,1,.38-.61,1.89,1.89,0,0,1,.59-.41,2.05,2.05,0,0,1,1.49,0,1.56,1.56,0,0,1,.54.4,1.47,1.47,0,0,1,.33.55,1.76,1.76,0,0,1,.12.63v.34H29.79a1.69,1.69,0,0,0,.06.39,1.49,1.49,0,0,0,.22.46,1.32,1.32,0,0,0,.43.38,1.31,1.31,0,0,0,.69.16,1.61,1.61,0,0,0,.71-.17,1.3,1.3,0,0,0,.53-.48Zm-.36-1.46a1.24,1.24,0,0,0-.1-.47,1.29,1.29,0,0,0-.28-.38,1.38,1.38,0,0,0-.4-.26,1.43,1.43,0,0,0-.5-.09,1.22,1.22,0,0,0-.66.16,1.34,1.34,0,0,0-.41.37,1.29,1.29,0,0,0-.21.4.87.87,0,0,0-.07.27Z"/><path class="cls-1" d="M34,34.44a1.09,1.09,0,0,0,.44.46,1.39,1.39,0,0,0,.63.15.79.79,0,0,0,.3,0,.84.84,0,0,0,.27-.13.8.8,0,0,0,.2-.21.57.57,0,0,0,.08-.29.45.45,0,0,0-.17-.38,1.16,1.16,0,0,0-.4-.2c-.16,0-.34-.09-.53-.13a1.82,1.82,0,0,1-.53-.16,1.08,1.08,0,0,1-.4-.3.78.78,0,0,1-.17-.54.89.89,0,0,1,.12-.47.92.92,0,0,1,.29-.33,1.16,1.16,0,0,1,.4-.2A1.76,1.76,0,0,1,35,31.6a1.8,1.8,0,0,1,.79.16,1.19,1.19,0,0,1,.51.53l-.43.26a1,1,0,0,0-.34-.39A1,1,0,0,0,35,32a.84.84,0,0,0-.27,0,.71.71,0,0,0-.25.11.66.66,0,0,0-.19.18.47.47,0,0,0-.08.26.43.43,0,0,0,.17.37,1.35,1.35,0,0,0,.4.19l.53.11a2.18,2.18,0,0,1,.53.16,1,1,0,0,1,.4.31.91.91,0,0,1,.17.58,1.12,1.12,0,0,1-.11.5,1,1,0,0,1-.3.36,1.44,1.44,0,0,1-.43.21,1.63,1.63,0,0,1-.5.07,2.13,2.13,0,0,1-.88-.18,1.34,1.34,0,0,1-.61-.57Z"/><path class="cls-1" d="M37.34,30.23a.35.35,0,0,1,.1-.26.34.34,0,0,1,.26-.1A.33.33,0,0,1,38,30a.36.36,0,0,1,.11.26.33.33,0,0,1-.11.25.34.34,0,0,1-.25.11.35.35,0,0,1-.26-.11A.32.32,0,0,1,37.34,30.23Zm.12,1.46h.48v3.7h-.48Z"/><path class="cls-1" d="M43,35.15a2.66,2.66,0,0,1-.2,1.11,1.92,1.92,0,0,1-.5.66,1.85,1.85,0,0,1-.65.31,2.93,2.93,0,0,1-.62.08,3.31,3.31,0,0,1-.55-.05A2.76,2.76,0,0,1,40,37.1a1.64,1.64,0,0,1-.43-.24,1.78,1.78,0,0,1-.34-.33l.37-.35a1.55,1.55,0,0,0,.64.53,2.08,2.08,0,0,0,.82.17,1.87,1.87,0,0,0,.62-.1,1.23,1.23,0,0,0,.42-.25,1.4,1.4,0,0,0,.25-.35,1.86,1.86,0,0,0,.14-.37,2.58,2.58,0,0,0,.05-.36c0-.11,0-.2,0-.27v-.51h0a1.58,1.58,0,0,1-.56.53,1.86,1.86,0,0,1-.84.19,2,2,0,0,1-.77-.15,1.77,1.77,0,0,1-.62-.41,2,2,0,0,1-.43-.6,1.85,1.85,0,0,1-.15-.74,1.8,1.8,0,0,1,.15-.73,2,2,0,0,1,.43-.6,1.92,1.92,0,0,1,.62-.41,2,2,0,0,1,.77-.15,1.74,1.74,0,0,1,.84.19,1.5,1.5,0,0,1,.56.53h0v-.63H43Zm-.47-1.66a1.56,1.56,0,0,0-.11-.57,1.49,1.49,0,0,0-.31-.46,1.7,1.7,0,0,0-.47-.32,1.46,1.46,0,0,0-1.61.32,1.49,1.49,0,0,0-.31.46,1.38,1.38,0,0,0-.11.57,1.35,1.35,0,0,0,.11.57,1.4,1.4,0,0,0,.78.78,1.41,1.41,0,0,0,1.14,0,1.67,1.67,0,0,0,.47-.31,1.47,1.47,0,0,0,.42-1Z"/><path class="cls-1" d="M44.18,32.73v-.25c0-.1,0-.2,0-.3a2.44,2.44,0,0,0,0-.28c0-.09,0-.16,0-.21h.48c0,.14,0,.27,0,.4a.73.73,0,0,0,0,.25h0a1.32,1.32,0,0,1,.48-.52,1.35,1.35,0,0,1,.78-.22,1.61,1.61,0,0,1,.71.13,1.17,1.17,0,0,1,.43.36,1.31,1.31,0,0,1,.21.51,2.88,2.88,0,0,1,.06.59v2.2h-.48V33.21a2,2,0,0,0,0-.43,1.07,1.07,0,0,0-.14-.38.66.66,0,0,0-.28-.27.91.91,0,0,0-.47-.1,1.43,1.43,0,0,0-.5.09,1,1,0,0,0-.4.28,1.37,1.37,0,0,0-.28.47,2.2,2.2,0,0,0-.1.67v1.85h-.48Z"/><path class="cls-1" d="M51.9,34.69a1.57,1.57,0,0,1-.7.61,2.19,2.19,0,0,1-.9.18,1.89,1.89,0,0,1-.77-.14,1.76,1.76,0,0,1-.59-.4,1.65,1.65,0,0,1-.38-.62,2.22,2.22,0,0,1-.14-.79,2.15,2.15,0,0,1,.14-.77,2,2,0,0,1,.38-.61,1.89,1.89,0,0,1,.59-.41,2.05,2.05,0,0,1,1.49,0,1.47,1.47,0,0,1,.54.4,1.64,1.64,0,0,1,.34.55,2,2,0,0,1,.11.63v.34H48.9a1.69,1.69,0,0,0,.06.39,1.49,1.49,0,0,0,.22.46,1.32,1.32,0,0,0,.43.38,1.31,1.31,0,0,0,.69.16,1.65,1.65,0,0,0,.72-.17,1.34,1.34,0,0,0,.52-.48Zm-.37-1.46a1.24,1.24,0,0,0-.1-.47,1.46,1.46,0,0,0-.27-.38,1.59,1.59,0,0,0-.41-.26,1.43,1.43,0,0,0-.5-.09,1.18,1.18,0,0,0-.65.16,1.27,1.27,0,0,0-.42.37A1.29,1.29,0,0,0,49,33a.87.87,0,0,0-.07.27Z"/><path class="cls-1" d="M53.08,32.73a2.36,2.36,0,0,0,0-.25c0-.1,0-.2,0-.3s0-.2,0-.28a1.79,1.79,0,0,1,0-.21h.48c0,.14,0,.27,0,.4a1.14,1.14,0,0,0,0,.25A1.64,1.64,0,0,1,54,31.8a1.26,1.26,0,0,1,.71-.2h.14l.14,0-.06.47-.18,0a1.27,1.27,0,0,0-.54.1.94.94,0,0,0-.38.27,1.25,1.25,0,0,0-.22.41,1.7,1.7,0,0,0-.07.51v2h-.48Z"/></g></g></svg>